HIERARCHY
ROOT root
{
	OFFSET	0	13.1	24.9
	CHANNELS 6  Xposition Yposition Zposition Xrotation Yrotation Zrotation
	JOINT spine_1
	{
		OFFSET	0	9.99999	0
		CHANNELS 3  Xrotation Yrotation Zrotation
		JOINT spine_2
		{
			OFFSET	0	112	-10
			CHANNELS 3  Xrotation Yrotation Zrotation
			JOINT spine_3
			{
				OFFSET	0	206.5	19.3
				CHANNELS 3  Xrotation Yrotation Zrotation
				JOINT spine_4
				{
					OFFSET	0	110.4	14.6
					CHANNELS 3  Xrotation Yrotation Zrotation
					JOINT neck_1
					{
						OFFSET	0	71.8	-50.3
						CHANNELS 3  Xrotation Yrotation Zrotation
						JOINT neck_2
						{
							OFFSET	0	86.2	-25.8
							CHANNELS 3  Xrotation Yrotation Zrotation
							JOINT head_ee
							{
								OFFSET	0	179.8	-8.7
								CHANNELS 3  Xrotation Yrotation Zrotation
								End Site
								{
									OFFSET	1	0	0
								}
							}
						}
					}
					JOINT left_clavicle
					{
						OFFSET	-43.2	22.4	-70.8
						CHANNELS 3  Xrotation Yrotation Zrotation
						JOINT left_shoulder
						{
							OFFSET	-93.9	-5.79999	48.7
							CHANNELS 3  Xrotation Yrotation Zrotation
							JOINT left_elbow
							{
								OFFSET	-291.4	-30.8	15.2
								CHANNELS 3  Xrotation Yrotation Zrotation
								JOINT left_lowarm_twist
								{
									OFFSET	-110.7	-3.89999	13.6
									CHANNELS 3  Xrotation Yrotation Zrotation
									JOINT left_hand
									{
										OFFSET	-110.7	-3.89999	13.6
										CHANNELS 3  Xrotation Yrotation Zrotation
										JOINT left_ee
										{
											OFFSET	-80.8	-5.10001	12.1
											CHANNELS 3  Xrotation Yrotation Zrotation
											End Site
											{
												OFFSET	1	0	0
											}
										}
									}
								}
							}
						}
					}
					JOINT right_clavicle
					{
						OFFSET	43.2	22.4	-70.8
						CHANNELS 3  Xrotation Yrotation Zrotation
						JOINT right_shoulder
						{
							OFFSET	93.9	-5.79999	48.7
							CHANNELS 3  Xrotation Yrotation Zrotation
							JOINT right_elbow
							{
								OFFSET	291.4	-30.8	15.2
								CHANNELS 3  Xrotation Yrotation Zrotation
								JOINT right_lowarm_twist
								{
									OFFSET	110.7	-3.89999	13.6
									CHANNELS 3  Xrotation Yrotation Zrotation
									JOINT right_hand
									{
										OFFSET	110.7	-3.89999	13.6
										CHANNELS 3  Xrotation Yrotation Zrotation
										JOINT right_ee
										{
											OFFSET	80.8	-5.10001	12.1
											CHANNELS 3  Xrotation Yrotation Zrotation
											End Site
											{
												OFFSET	1	0	0
											}
										}
									}
								}
							}
						}
					}
				}
			}
		}
	}
	JOINT left_hip
	{
		OFFSET	-82.8	-127.5	0.300001
		CHANNELS 3  Xrotation Yrotation Zrotation
		JOINT left_knee
		{
			OFFSET	-28.2	-396.7	2.2
			CHANNELS 3  Xrotation Yrotation Zrotation
			JOINT left_ankle
			{
				OFFSET	-11.7	-411.3	35.4
				CHANNELS 3  Xrotation Yrotation Zrotation
				JOINT left_toes
				{
					OFFSET	0	-60	-88.6
					CHANNELS 3  Xrotation Yrotation Zrotation
					JOINT left_foot_ee
					{
						OFFSET	-22.5	-16.5	-42.2
						CHANNELS 3  Xrotation Yrotation Zrotation
						End Site
						{
							OFFSET	1	0	0
						}
					}
				}
			}
		}
	}
	JOINT right_hip
	{
		OFFSET	82.8	-127.5	0.300001
		CHANNELS 3  Xrotation Yrotation Zrotation
		JOINT right_knee
		{
			OFFSET	28.2	-396.7	2.2
			CHANNELS 3  Xrotation Yrotation Zrotation
			JOINT right_ankle
			{
				OFFSET	11.7	-411.3	35.4
				CHANNELS 3  Xrotation Yrotation Zrotation
				JOINT right_toes
				{
					OFFSET	0	-60	-88.6
					CHANNELS 3  Xrotation Yrotation Zrotation
					JOINT right_foot_ee
					{
						OFFSET	22.5	-16.5	-42.2
						CHANNELS 3  Xrotation Yrotation Zrotation
						End Site
						{
							OFFSET	1	0	0
						}
					}
				}
			}
		}
	}
}
MOTION
Frames: 13
Frame Time: 0.02
2893.35 681.781 -684.477 -165.457 -46.3117 -173.511 4.81879 0.00757025 1.70597 4.82041 -0.100984 1.70299 4.81612 -0.317146 1.67626 4.8122 -0.0484724 1.7053 -10.4292 8.04373 -2.56118 -10.5109 16.8761 -0.409478 -0.0 0.0 -0.0 5.37345 15.3019 10.4249 -70.3608 -66.9644 1.5615 0.629805 -17.3274 0.0959661 22.0267 0.243283 -2.78591 -1.2471 -18.5341 -16.3641 -0.0 0.0 -0.0 7.03813 11.012 -13.425 -82.9307 75.5904 -23.0459 0.766309 20.7871 -0.140556 -21.6424 1.24223 -2.45632 -0.394692 -27.7893 -8.73357 0.0 0.0 0.0 11.4192 -12.3282 17.3102 -31.5521 -0.0185066 4.78141 18.6216 -29.0418 -3.17104 -10.1239 0.0 0.0 -0.0 0.0 -0.0 41.7179 21.4656 -8.65867 -9.84443 -0.278468 -1.48329 33.1436 -24.1505 4.4392 -37.2074 0.0 0.0 0.0 0.0 0.0 
2910.32 689.579 -681.103 -165.858 -46.4274 -174.099 4.78877 -0.119771 1.53849 4.79006 -0.217414 1.52775 4.78325 -0.411176 1.48736 4.7802 -0.171143 1.53362 -9.51314 8.07424 -3.28133 -9.55529 17.4057 -1.2479 -0.0 0.0 -0.0 5.47869 15.1078 10.6014 -70.6282 -66.8774 4.91435 0.650042 -17.8493 0.102081 22.5444 0.236046 -2.85164 -0.96311 -19.4043 -14.7674 -0.0 0.0 -0.0 6.63121 12.5725 -12.4809 -82.0166 73.4154 -22.6888 1.01089 26.5996 -0.238968 -21.751 1.25073 -2.46732 -0.260527 -28.3321 -9.67428 0.0 0.0 0.0 12.1791 -9.80095 17.3263 -36.4607 -0.25709 5.49644 19.3412 -31.0534 -3.36848 -9.46005 0.0 0.0 -0.0 0.0 -0.0 40.2765 21.8865 -8.03687 -9.03033 -0.265157 -1.35908 33.9266 -22.697 4.48775 -37.5194 0.0 0.0 0.0 0.0 0.0 
2947.18 690.817 -665.581 -165.607 -46.9511 -174.295 4.6964 -0.0574087 1.51228 4.69766 -0.153511 1.50556 4.69267 -0.347265 1.47299 4.68966 -0.110303 1.50934 -8.23356 7.86557 -3.63647 -8.22095 17.2467 -1.85068 -0.0 0.0 -0.0 5.09334 15.3911 9.96723 -71.6763 -65.6209 9.18856 0.667534 -18.2979 0.107508 22.9534 0.229909 -2.90353 -0.640495 -20.7443 -13.1219 -0.0 0.0 -0.0 6.11013 15.3238 -11.1964 -79.3604 70.3426 -21.6101 1.32105 33.1995 -0.393831 -20.6352 1.16434 -2.35346 0.00803472 -28.8098 -11.3222 0.0 0.0 0.0 14.0426 -6.03398 16.3309 -42.0174 -0.600079 6.27837 20.3793 -34.4358 -3.70484 -8.55352 0.0 0.0 -0.0 0.0 -0.0 37.0572 22.5903 -6.78033 -8.86416 -0.262223 -1.33375 34.984 -20.6666 4.55279 -37.3958 0.0 0.0 0.0 0.0 0.0 
2959.22 693.21 -651.9 -166.201 -47.1079 -174.996 4.56816 0.0642591 1.46129 4.56934 -0.0288465 1.46241 4.56774 -0.221172 1.44588 4.56482 0.00992853 1.46266 -7.82937 7.89027 -3.38098 -7.80839 17.1077 -1.65426 -0.0 0.0 -0.0 5.00545 15.548 9.82239 -69.849 -65.8519 13.85 0.699271 -19.106 0.117684 23.2908 0.224568 -2.9463 -0.662435 -20.3864 -13.1235 -0.0 0.0 -0.0 6.74614 17.3133 -12.4299 -77.5442 68.6133 -22.0724 1.35704 33.9087 -0.413723 -19.5762 1.08442 -2.24388 0.291064 -28.2557 -12.7032 0.0 0.0 0.0 14.7406 -4.56133 15.236 -42.1857 -0.611646 6.30152 19.5583 -33.1461 -3.50454 -8.33258 0.0 0.0 -0.0 0.0 -0.0 36.6758 23.1459 -6.81265 -10.5853 -0.289048 -1.59649 35.1725 -18.9844 4.5384 -37.5796 0.0 0.0 0.0 0.0 0.0 
2973.93 697.652 -648.499 -167.059 -47.0502 -175.133 4.43213 0.224961 1.33481 4.43311 0.139576 1.34641 4.4357 -0.0420065 1.35298 4.43319 0.172178 1.34263 -7.24969 7.9414 -2.95907 -7.21829 16.8909 -1.31091 -0.0 0.0 -0.0 4.91752 15.5843 9.67963 -67.2067 -65.9648 19.9927 0.740001 -20.1316 0.131361 23.7468 0.216948 -3.00405 -0.69755 -19.8811 -13.1538 -0.0 0.0 -0.0 7.68793 19.8139 -14.2977 -74.8169 66.479 -23.0994 1.41434 35.0139 -0.446149 -18.057 0.973342 -2.08415 0.687519 -27.4725 -14.688 0.0 0.0 0.0 15.0946 -2.49455 13.9122 -42.4364 -0.628998 6.33594 18.3849 -31.0801 -3.22064 -8.01694 0.0 0.0 -0.0 0.0 -0.0 36.2356 24.0463 -6.6539 -13.0666 -0.313803 -1.97636 35.3492 -16.6115 4.51578 -37.8469 0.0 0.0 0.0 0.0 0.0 
2993.5 710.733 -633.464 -166.678 -49.5155 -174.538 4.41944 0.270829 1.25545 4.42029 0.190399 1.27014 4.42392 0.0183238 1.2842 4.42168 0.220893 1.26519 -6.59826 8.01083 -2.3738 -6.55774 16.5775 -0.806309 -0.0 0.0 -0.0 4.85898 15.5293 9.58552 -63.4478 -65.393 27.0538 0.764317 -20.7376 0.139851 24.4721 0.203884 -3.09577 -0.789147 -19.0347 -13.4281 -0.0 0.0 -0.0 9.25984 23.2831 -17.4805 -70.9964 63.8002 -24.5282 1.5117 36.8254 -0.503275 -15.7469 0.812694 -1.83585 1.26947 -26.4175 -17.7465 0.0 0.0 0.0 15.4759 0.159208 11.4422 -41.3792 -0.556833 6.19026 16.9382 -27.8935 -2.86935 -7.46237 0.0 0.0 -0.0 0.0 -0.0 35.3794 25.0547 -6.13323 -17.2523 -0.318229 -2.61841 31.5873 -13.7643 4.09301 -39.1444 0.0 0.0 0.0 0.0 0.0 
3001.63 700.336 -626.306 -166.551 -50.2918 -174.96 4.36168 0.321203 1.58528 4.36305 0.219689 1.6025 4.36826 0.00120686 1.61748 4.3647 0.25661 1.597 -7.19194 8.05025 -2.25315 -7.17223 16.5866 -0.590082 -0.0 0.0 -0.0 4.99237 15.9109 9.79618 -63.225 -65.4904 27.5125 0.76024 -20.6364 0.13841 24.5387 0.202627 -3.10418 -0.794154 -18.9792 -13.4393 -0.0 0.0 -0.0 9.41218 24.2047 -17.7334 -71.0417 63.7869 -24.4775 1.45393 35.7606 -0.469078 -15.7485 0.812802 -1.83602 1.26318 -26.538 -17.7435 0.0 0.0 0.0 15.5141 0.13388 11.4299 -41.4489 -0.561511 6.19991 16.8308 -28.1409 -2.86151 -7.42416 0.0 0.0 -0.0 0.0 -0.0 35.366 24.9315 -6.18207 -17.2459 -0.318258 -2.61744 31.5602 -13.7435 4.08994 -39.1535 0.0 0.0 0.0 0.0 0.0 
3010.71 694.638 -616.832 -167.138 -51.4754 -175.014 4.28725 0.382087 1.6963 4.28881 0.273389 1.71717 4.29597 0.0367533 1.7384 4.29189 0.310799 1.71079 -7.81632 8.08378 -2.14274 -7.81812 16.5939 -0.380935 -0.0 0.0 -0.0 4.64515 16.0884 9.23698 -63.9368 -65.0637 27.0977 0.748613 -20.3468 0.13434 24.5848 0.20175 -3.11001 -0.793141 -18.9314 -13.4127 -0.0 0.0 -0.0 9.42611 24.9565 -17.6906 -71.4026 63.5961 -24.2867 1.40613 34.8574 -0.441449 -15.7297 0.811537 -1.83398 1.26013 -26.6023 -17.7436 0.0 0.0 0.0 15.835 0.394678 11.7508 -41.4987 -0.564855 6.20679 16.7549 -28.317 -2.85601 -7.40634 0.0 0.0 -0.0 0.0 -0.0 34.8966 24.7965 -6.21424 -17.3775 -0.317639 -2.63761 31.4943 -13.8783 4.08427 -39.1177 0.0 0.0 0.0 0.0 0.0 
3038.61 707.102 -600.778 -166.568 -52.3027 -174.85 4.20461 0.563134 2.2162 4.20724 0.421007 2.24752 4.22208 0.107849 2.28405 4.2151 0.467127 2.23839 -8.12641 8.18312 -1.62685 -8.14472 16.4287 0.198451 -0.0 0.0 -0.0 3.52443 17.5636 7.48164 -64.7434 -64.7522 27.6191 0.737295 -20.0639 0.130431 24.5523 0.202367 -3.10591 -0.795127 -18.9188 -13.421 -0.0 0.0 -0.0 9.38922 25.8259 -17.5194 -71.8489 63.3001 -24.1476 1.3624 34.0133 -0.416718 -15.7049 0.809868 -1.83128 1.27467 -26.6833 -17.8519 0.0 0.0 0.0 18.5683 0.507247 10.0433 -43.2527 -0.686561 6.44752 16.6972 -28.4403 -2.85143 -7.00527 0.0 0.0 -0.0 0.0 -0.0 32.7007 24.8605 -5.50366 -18.0359 -0.313845 -2.73856 32.7968 -13.4282 4.2164 -38.4711 0.0 0.0 0.0 0.0 0.0 
3052.48 713.183 -590.272 -166.561 -53.9234 -174.978 4.19149 0.543148 2.33916 4.19445 0.393243 2.36896 4.20884 0.0630633 2.40053 4.20107 0.441285 2.36049 -8.13803 8.1969 -1.4161 -8.15878 16.3071 0.411966 -0.0 0.0 -0.0 3.01589 18.5629 6.7267 -64.3754 -65.0678 28.6835 0.73837 -20.0908 0.1308 24.9752 0.194139 -3.1593 -0.734441 -17.9228 -12.5951 -0.0 0.0 -0.0 9.73523 26.4979 -18.2187 -71.3141 63.7887 -24.725 1.3439 33.6511 -0.406417 -15.7204 0.81091 -1.83296 1.327 -27.968 -18.5108 0.0 0.0 0.0 20.6914 1.83873 8.9289 -48.5256 -1.0962 7.14763 17.833 -29.7091 -3.07647 -6.33101 0.0 0.0 -0.0 0.0 -0.0 30.7948 24.0897 -4.76947 -18.5094 -0.3104 -2.81113 33.3679 -13.8793 4.27984 -38.0233 0.0 0.0 0.0 0.0 0.0 
3063.67 707.265 -576.651 -166.794 -55.3868 -175.088 4.12415 0.590098 2.55917 4.12769 0.426112 2.59151 4.14479 0.0620452 2.62555 4.13548 0.475783 2.58285 -7.47177 8.41427 -1.50253 -7.47211 16.7411 0.277454 -0.0 0.0 -0.0 1.99916 19.2867 5.22819 -64.773 -64.8252 29.8798 0.716091 -19.5312 0.123249 25.4241 0.184974 -3.21591 -0.68519 -17.3385 -12.0163 -0.0 0.0 -0.0 10.0552 27.1027 -18.866 -70.3508 64.2421 -24.1428 1.33457 33.4674 -0.401263 -15.054 0.766483 -1.76015 1.44997 -28.1945 -19.2869 0.0 0.0 0.0 26.7935 5.4549 3.79525 -53.5506 -1.54526 7.77773 14.0603 -30.755 -2.50915 -6.17597 0.0 0.0 -0.0 0.0 -0.0 27.7425 22.8982 -3.865 -18.9576 -0.306586 -2.87979 35.6165 -13.8794 4.50566 -36.9114 0.0 0.0 0.0 0.0 0.0 
3077.71 721.404 -558.864 -168.247 -56.2753 -175.899 4.07034 0.620253 2.70406 4.0743 0.446996 2.73801 4.09329 0.0599037 2.77359 4.0829 0.497023 2.72938 -6.98901 8.66386 -1.61562 -6.97237 17.2612 0.145178 -0.0 0.0 -0.0 1.17382 19.3345 4.00194 -64.3967 -64.4555 30.3386 0.6879 -18.8174 0.11399 26.3957 0.16362 -3.33818 -0.611807 -16.5166 -11.1727 -0.0 0.0 -0.0 10.3224 27.7841 -19.385 -69.4819 65.5101 -23.7886 1.33583 33.4922 -0.401958 -14.6277 0.738508 -1.7133 1.54074 -28.373 -19.8628 0.0 0.0 0.0 31.4822 7.19487 1.00581 -57.0654 -1.89157 8.19426 11.0248 -29.8369 -1.97134 -6.35582 0.0 0.0 -0.0 0.0 -0.0 26.5641 21.7133 -4.46576 -19.1521 -0.304764 -2.90957 36.6961 -13.9254 4.61108 -36.1344 0.0 0.0 0.0 0.0 0.0 
3086.2 722.079 -546.202 -168.309 -57.1909 -175.502 4.04139 0.525817 2.74664 4.04552 0.350044 2.77451 4.06002 -0.0429388 2.79615 4.04934 0.399028 2.76789 -7.44905 8.62314 -2.16434 -7.44003 17.5999 -0.34137 -0.0 0.0 -0.0 0.534743 19.3794 3.05624 -64.0197 -64.1585 30.7685 0.667527 -18.2977 0.107506 27.1561 0.145461 -3.43362 -0.565394 -15.9414 -10.6152 -0.0 0.0 -0.0 10.1723 27.0558 -19.1331 -68.4951 66.4385 -23.4934 1.33671 33.5095 -0.402441 -15.1013 0.76961 -1.76533 1.56045 -28.5815 -20.0305 0.0 0.0 0.0 34.613 8.16879 -1.37022 -59.5783 -2.15462 8.47882 8.89002 -29.2363 -1.59173 -6.40252 0.0 0.0 -0.0 0.0 -0.0 25.778 20.8825 -4.90444 -19.2723 -0.303587 -2.92799 37.3037 -14.7824 4.68014 -35.5436 0.0 0.0 0.0 0.0 0.0 
